<svg width="1280" height="420" viewBox="0 0 1280 420" fill="none" xmlns="http://www.w3.org/2000/svg" role="img" aria-labelledby="title desc">
  <title id="title">Fine Tension banner</title>
  <desc id="desc">A minimal dark banner with the Fine Tension name and thin line geometry.</desc>
  <defs>
    <linearGradient id="bg" x1="0" y1="0" x2="1280" y2="420" gradientUnits="userSpaceOnUse">
      <stop offset="0" stop-color="#09090B"/>
      <stop offset="0.54" stop-color="#111113"/>
      <stop offset="1" stop-color="#151817"/>
    </linearGradient>
    <radialGradient id="accent" cx="0" cy="0" r="1" gradientUnits="userSpaceOnUse" gradientTransform="translate(1038 178) rotate(155) scale(330 170)">
      <stop stop-color="#8CF8D2" stop-opacity="0.2"/>
      <stop offset="1" stop-color="#8CF8D2" stop-opacity="0"/>
    </radialGradient>
    <pattern id="grid" width="40" height="40" patternUnits="userSpaceOnUse">
      <path d="M40 0H0V40" stroke="#FAFAFA" stroke-opacity="0.035" stroke-width="1"/>
    </pattern>
  </defs>

  <rect width="1280" height="420" rx="24" fill="url(#bg)"/>
  <rect width="1280" height="420" rx="24" fill="url(#grid)"/>
  <rect width="1280" height="420" rx="24" fill="url(#accent)"/>

  <path d="M86 112H1186" stroke="#FAFAFA" stroke-opacity="0.12" stroke-width="1"/>
  <path d="M86 308H1186" stroke="#FAFAFA" stroke-opacity="0.12" stroke-width="1"/>
  <path d="M934 70V350" stroke="#FAFAFA" stroke-opacity="0.08" stroke-width="1"/>

  <path d="M934 112C980 112 1001 160 1034 160C1067 160 1088 112 1134 112" stroke="#8CF8D2" stroke-opacity="0.86" stroke-width="2" stroke-linecap="round"/>
  <path d="M934 308C980 308 1001 260 1034 260C1067 260 1088 308 1134 308" stroke="#FAFAFA" stroke-opacity="0.3" stroke-width="2" stroke-linecap="round"/>

  <circle cx="934" cy="112" r="4" fill="#FAFAFA"/>
  <circle cx="1034" cy="160" r="4" fill="#8CF8D2"/>
  <circle cx="1134" cy="112" r="4" fill="#FAFAFA"/>
  <circle cx="934" cy="308" r="4" fill="#FAFAFA" fill-opacity="0.5"/>
  <circle cx="1034" cy="260" r="4" fill="#FAFAFA" fill-opacity="0.5"/>
  <circle cx="1134" cy="308" r="4" fill="#FAFAFA" fill-opacity="0.5"/>

  <text x="86" y="194" fill="#FAFAFA" font-family="Inter, ui-sans-serif, system-ui, -apple-system, BlinkMacSystemFont, Segoe UI, sans-serif" font-size="88" font-weight="760" letter-spacing="0">
    Fine Tension
  </text>
  <text x="91" y="242" fill="#A1A1AA" font-family="Inter, ui-sans-serif, system-ui, -apple-system, BlinkMacSystemFont, Segoe UI, sans-serif" font-size="24" font-weight="450" letter-spacing="0">
    focused software / quiet interfaces / fast loops
  </text>

  <text x="91" y="316" fill="#71717A" font-family="Inter, ui-sans-serif, system-ui, -apple-system, BlinkMacSystemFont, Segoe UI, sans-serif" font-size="14" font-weight="600" letter-spacing="0">
    PRODUCT ENGINEERING
  </text>
  <text x="298" y="316" fill="#71717A" font-family="Inter, ui-sans-serif, system-ui, -apple-system, BlinkMacSystemFont, Segoe UI, sans-serif" font-size="14" font-weight="600" letter-spacing="0">
    AI WORKFLOWS
  </text>
  <text x="456" y="316" fill="#71717A" font-family="Inter, ui-sans-serif, system-ui, -apple-system, BlinkMacSystemFont, Segoe UI, sans-serif" font-size="14" font-weight="600" letter-spacing="0">
    DX
  </text>
</svg>
