<svg width="1280" height="420" viewBox="0 0 1280 420" fill="none" xmlns="http://www.w3.org/2000/svg" role="img" aria-labelledby="title desc">
  <title id="title">Fine Tension banner</title>
  <desc id="desc">A dark technical banner with the Fine Tension name and precise line geometry.</desc>
  <defs>
    <linearGradient id="bg" x1="0" y1="0" x2="1280" y2="420" gradientUnits="userSpaceOnUse">
      <stop offset="0" stop-color="#111827"/>
      <stop offset="0.47" stop-color="#172033"/>
      <stop offset="1" stop-color="#10201D"/>
    </linearGradient>
    <linearGradient id="line" x1="160" y1="88" x2="1120" y2="332" gradientUnits="userSpaceOnUse">
      <stop stop-color="#E5E7EB"/>
      <stop offset="0.36" stop-color="#58C7A4"/>
      <stop offset="0.68" stop-color="#E9B44C"/>
      <stop offset="1" stop-color="#F8FAFC"/>
    </linearGradient>
    <radialGradient id="glow" cx="0" cy="0" r="1" gradientUnits="userSpaceOnUse" gradientTransform="translate(910 190) rotate(154) scale(420 220)">
      <stop stop-color="#58C7A4" stop-opacity="0.28"/>
      <stop offset="1" stop-color="#58C7A4" stop-opacity="0"/>
    </radialGradient>
    <pattern id="grid" width="40" height="40" patternUnits="userSpaceOnUse">
      <path d="M40 0H0V40" stroke="#F8FAFC" stroke-opacity="0.055" stroke-width="1"/>
    </pattern>
  </defs>

  <rect width="1280" height="420" rx="28" fill="url(#bg)"/>
  <rect width="1280" height="420" rx="28" fill="url(#grid)"/>
  <rect width="1280" height="420" rx="28" fill="url(#glow)"/>

  <path d="M132 282C245 182 337 156 458 211C579 266 664 274 763 196C862 118 978 109 1148 165" stroke="url(#line)" stroke-width="3.5" stroke-linecap="round"/>
  <path d="M132 282C245 182 337 156 458 211C579 266 664 274 763 196C862 118 978 109 1148 165" stroke="#F8FAFC" stroke-opacity="0.1" stroke-width="16" stroke-linecap="round"/>

  <circle cx="132" cy="282" r="7" fill="#F8FAFC"/>
  <circle cx="458" cy="211" r="7" fill="#58C7A4"/>
  <circle cx="763" cy="196" r="7" fill="#E9B44C"/>
  <circle cx="1148" cy="165" r="7" fill="#F8FAFC"/>

  <g opacity="0.72">
    <path d="M166 117H282" stroke="#F8FAFC" stroke-opacity="0.18" stroke-width="1.5"/>
    <path d="M998 305H1114" stroke="#F8FAFC" stroke-opacity="0.18" stroke-width="1.5"/>
    <path d="M1048 255V355" stroke="#F8FAFC" stroke-opacity="0.12" stroke-width="1.5"/>
  </g>

  <text x="92" y="165" fill="#F8FAFC" font-family="Inter, ui-sans-serif, system-ui, -apple-system, BlinkMacSystemFont, Segoe UI, sans-serif" font-size="76" font-weight="750" letter-spacing="0">
    Fine Tension
  </text>
  <text x="96" y="220" fill="#D1D5DB" font-family="Inter, ui-sans-serif, system-ui, -apple-system, BlinkMacSystemFont, Segoe UI, sans-serif" font-size="24" font-weight="450" letter-spacing="0">
    useful systems, clean interfaces, fast iteration
  </text>

  <g transform="translate(96 304)">
    <rect width="154" height="38" rx="19" fill="#F8FAFC" fill-opacity="0.09" stroke="#F8FAFC" stroke-opacity="0.16"/>
    <text x="20" y="25" fill="#F8FAFC" font-family="Inter, ui-sans-serif, system-ui, sans-serif" font-size="14" font-weight="650">product engineering</text>
  </g>
  <g transform="translate(266 304)">
    <rect width="126" height="38" rx="19" fill="#58C7A4" fill-opacity="0.13" stroke="#58C7A4" stroke-opacity="0.32"/>
    <text x="20" y="25" fill="#DDF8EF" font-family="Inter, ui-sans-serif, system-ui, sans-serif" font-size="14" font-weight="650">AI workflows</text>
  </g>
  <g transform="translate(408 304)">
    <rect width="118" height="38" rx="19" fill="#E9B44C" fill-opacity="0.14" stroke="#E9B44C" stroke-opacity="0.36"/>
    <text x="20" y="25" fill="#FFF1CC" font-family="Inter, ui-sans-serif, system-ui, sans-serif" font-size="14" font-weight="650">developer tools</text>
  </g>
</svg>
